<svg width="21" height="22" fill="none" xmlns="http://www.w3.org/2000/svg"><path d="M13.781 10.793a3.282 3.282 0 01-6.562 0c0-.187.02-.37.053-.547H6.125v4.372c0 .304.246.55.55.55h7.65a.55.55 0 00.55-.55v-4.372h-1.147c.034.177.053.36.053.547zM10.5 12.981a2.19 2.19 0 001.546-3.736A2.187 2.187 0 1010.5 12.98zm2.625-4.485h1.311a.33.33 0 00.33-.328V6.857a.33.33 0 00-.33-.33h-1.311a.33.33 0 00-.33.33v1.311a.33.33 0 00.33.328zM10.5.293a10.5 10.5 0 100 21 10.5 10.5 0 000-21zm5.469 14.754c0 .668-.547 1.215-1.215 1.215H6.246a1.219 1.219 0 01-1.215-1.215V6.539c0-.668.547-1.215 1.215-1.215h8.508c.668 0 1.215.547 1.215 1.215v8.508z" fill="#E6E6E6"/></svg>