<svg width="21" height="22" fill="none" xmlns="http://www.w3.org/2000/svg"><path d="M10.5.293C4.7.293 0 4.993 0 10.793c0 5.799 4.7 10.5 10.5 10.5S21 16.592 21 10.793c0-5.8-4.7-10.5-10.5-10.5zM7.93 15.145H5.803V8.303H7.93v6.842zM6.853 7.463c-.671 0-1.105-.476-1.105-1.065 0-.6.447-1.062 1.133-1.062.686 0 1.106.462 1.119 1.062 0 .589-.433 1.065-1.147 1.065zm8.842 7.682H13.57v-3.792c0-.883-.308-1.482-1.077-1.482-.588 0-.937.406-1.09.796-.058.14-.072.336-.072.532v3.945H9.203v-4.66c0-.854-.028-1.568-.056-2.183h1.847l.098.95h.042c.28-.445.966-1.104 2.114-1.104 1.398 0 2.447.938 2.447 2.952v4.046z" fill="#E6E6E6"/></svg>