<svg width="21" height="22" fill="none" xmlns="http://www.w3.org/2000/svg"><path d="M10.5.293C4.7.293 0 4.993 0 10.793c0 5.799 4.7 10.5 10.5 10.5S21 16.592 21 10.793c0-5.8-4.7-10.5-10.5-10.5zm.719 12.988c-.674-.051-.956-.385-1.484-.704-.29 1.521-.644 2.98-1.694 3.743-.325-2.302.475-4.027.847-5.862-.633-1.066.075-3.211 1.412-2.684 1.644.652-1.424 3.965.635 4.38 2.15.43 3.029-3.732 1.696-5.084-1.928-1.955-5.608-.045-5.155 2.753.11.683.817.891.282 1.835-1.233-.273-1.601-1.246-1.553-2.542.075-2.122 1.906-3.608 3.742-3.813 2.322-.258 4.5.852 4.802 3.038.338 2.465-1.049 5.133-3.53 4.94z" fill="#E6E6E6"/></svg>